<svg width="377" height="65" viewBox="0 0 377 65" fill="none" xmlns="http://www.w3.org/2000/svg">
<path d="M9.35995 5.19995H3.74995V0.420044H0.199951V13.41H3.74995V8.19995H9.35995V13.41H12.8999V0.420044H9.35995V5.19995Z" fill="#ED2024"/>
<path d="M18.0098 5.39001C18.3098 3.64001 19.2799 2.71997 20.8499 2.71997C22.4199 2.71997 23.5199 3.80001 23.5699 5.39001H18.0098ZM20.8698 0.0799561C16.9598 0.0799561 14.3398 2.77996 14.3398 6.82996C14.3398 10.88 16.9298 13.72 20.9798 13.72C24.2098 13.72 26.4399 12.2401 27.2699 9.43005H23.4298C23.0798 10.4601 22.2699 10.97 21.0499 10.97C19.2199 10.97 18.1199 9.88 18.0199 8H27.2598C27.2598 7.54 27.2898 7.38004 27.2898 7.17004C27.2898 2.80004 24.8098 0.0999756 20.8598 0.0999756" fill="#ED2024"/>
<path d="M33.3399 0.300063C32.0799 0.550063 28.8599 1.51996 28.8599 6.43996V13.41H32.4499V7.65004C32.4499 5.52004 32.7499 4.52002 33.6299 3.88002C34.1699 3.45002 34.9599 3.19997 35.8699 3.19997C36.2499 3.19997 36.4099 3.23007 36.8399 3.31007V0.36C36.8399 0.36 35.3999 -0.0999367 33.3299 0.300063" fill="#ED2024"/>
<path d="M43.9599 11C42.0699 11 40.9599 9.46002 40.9599 6.90002C40.9599 4.34002 42.0399 2.80005 43.9599 2.80005C45.8799 2.80005 46.9298 4.29 46.9298 6.88C46.9298 9.47 45.8499 11.01 43.9599 11.01M43.9599 0.0799561C39.9299 0.0799561 37.3398 2.75003 37.3398 6.91003C37.3398 11.07 39.9299 13.72 43.9599 13.72C47.9899 13.72 50.5499 11.04 50.5499 6.91003C50.5499 2.78003 47.9499 0.0799561 43.9599 0.0799561Z" fill="#ED2024"/>
<path d="M50.5399 22.87C50.5899 25.44 48.4299 27.54 45.8599 27.54H37.3499C37.0499 27.54 36.8099 27.78 36.8099 28.08V59.47C36.8099 62.02 34.7299 64.18 32.1799 64.15C30.6999 64.13 29.3799 63.41 28.5599 62.3L1.11994 25.71C0.449942 24.82 0.0999427 23.6699 0.229943 22.4399C0.459943 20.2999 2.20995 18.59 4.34995 18.4C6.02995 18.25 7.53994 19 8.44994 20.23L27.3399 45.41C27.4399 45.55 27.6599 45.47 27.6599 45.3V22.9499C27.6599 20.4199 29.7099 18.37 32.2399 18.37H45.9699C48.4699 18.37 50.4999 20.37 50.5499 22.86L50.5399 22.87ZM59.6899 18.38C57.1599 18.38 55.1099 20.43 55.1099 22.96V59.5699C55.1099 62.0999 57.1599 64.15 59.6899 64.15C62.2199 64.15 64.2699 62.0999 64.2699 59.5699V22.96C64.2699 20.43 62.2199 18.38 59.6899 18.38ZM96.2999 27.53C98.7999 27.53 100.83 25.53 100.88 23.04C100.93 20.55 98.7699 18.37 96.1999 18.37H77.9999C75.4699 18.37 73.4199 20.4199 73.4199 22.9499V59.46C73.4199 62.03 75.5199 64.19 78.0899 64.14C80.5799 64.09 82.5799 62.0601 82.5799 59.5601V28.0601C82.5799 27.7601 82.8199 27.52 83.1199 27.52H96.3099L96.2999 27.53ZM169.53 22.9499V59.5601C169.53 61.6101 168.18 63.35 166.31 63.93C165.88 64.06 165.42 64.14 164.95 64.14H110.03C109 64.14 108.06 63.8 107.29 63.23C107.23 63.19 107.17 63.14 107.12 63.09C107.01 63 106.9 62.9 106.79 62.79C106.74 62.74 106.69 62.69 106.64 62.63C106.34 62.3 106.1 61.94 105.9 61.54C105.61 60.94 105.45 60.2701 105.45 59.5601V46.37C105.45 46.07 105.21 45.83 104.91 45.83H100.87C98.3699 45.83 96.3399 43.83 96.2899 41.34C96.2399 38.85 98.3999 36.67 100.97 36.67H104.91C105.21 36.67 105.45 36.43 105.45 36.13V22.9399C105.45 20.4099 107.5 18.36 110.03 18.36H128.34C130.87 18.36 132.92 20.4099 132.92 22.9399V41.25C132.92 43.78 130.87 45.83 128.34 45.83H115.15C114.85 45.83 114.61 46.07 114.61 46.37V54.4499C114.61 54.7499 114.85 54.99 115.15 54.99H141.53C141.83 54.99 142.07 54.7499 142.07 54.4499V22.9499C142.07 20.4199 144.12 18.37 146.65 18.37H159.84C160.14 18.37 160.38 18.13 160.38 17.83V4.73999C160.38 2.16999 162.48 0.0100552 165.05 0.0600552C167.54 0.110055 169.54 2.14001 169.54 4.64001V22.9499H169.53ZM114.61 28.0601V36.14C114.61 36.44 114.85 36.68 115.15 36.68H123.23C123.53 36.68 123.77 36.44 123.77 36.14V28.0601C123.77 27.7601 123.53 27.52 123.23 27.52H115.15C114.85 27.52 114.61 27.7601 114.61 28.0601ZM151.22 28.0601V54.4399C151.22 54.7399 151.46 54.98 151.76 54.98H159.84C160.14 54.98 160.38 54.7399 160.38 54.4399V28.0601C160.38 27.7601 160.14 27.52 159.84 27.52H151.76C151.46 27.52 151.22 27.7601 151.22 28.0601Z" fill="#ED2024"/>
<path d="M181.91 18.41L181.97 64.13" stroke="#231F20" stroke-width="2" stroke-miterlimit="10"/>
<path d="M205.63 33.15H198.66L197 37.92H194.44L201.12 19.39H203.27L209.81 37.92H207.25L205.62 33.15H205.63ZM199.38 31.05H204.92L202.22 23.09H202.14L199.38 31.05V31.05Z" fill="#231F20"/>
<path d="M233.56 37.92H229.84V30.22H222.29V37.92H218.57V19.39H222.29V27.36H229.84V19.39H233.56V37.92Z" fill="#ED2024"/>
<path d="M247.56 29.78H240.69V35.0699H248.86V37.92H236.97V19.39H248.83V22.25H240.68V26.91H247.55V29.77L247.56 29.78Z" fill="#ED2024"/>
<path d="M255.18 30.52V37.9301H251.46V19.4H257.88C259.99 19.4 261.65 19.88 262.84 20.84C264.03 21.8 264.63 23.15 264.63 24.87C264.63 25.82 264.38 26.64 263.87 27.33C263.36 28.02 262.63 28.58 261.66 29C262.75 29.32 263.54 29.86 264.02 30.62C264.5 31.38 264.74 32.31 264.74 33.42V34.78C264.74 35.3 264.81 35.84 264.95 36.4C265.09 36.96 265.33 37.38 265.67 37.65V37.92H261.84C261.5 37.65 261.28 37.1999 261.18 36.5699C261.08 35.9399 261.03 35.34 261.03 34.75V33.4399C261.03 32.5199 260.78 31.8 260.27 31.28C259.77 30.77 259.05 30.51 258.13 30.51H255.18V30.52ZM255.18 27.66H257.81C258.85 27.66 259.63 27.44 260.14 27C260.65 26.56 260.9 25.91 260.9 25.04C260.9 24.17 260.64 23.52 260.13 23.02C259.62 22.52 258.86 22.27 257.87 22.27H255.17V27.67L255.18 27.66Z" fill="#ED2024"/>
<path d="M283.07 30.33C283.07 32.61 282.35 34.49 280.92 35.98C279.49 37.46 277.62 38.2 275.32 38.2C273.02 38.2 271.17 37.46 269.74 35.97C268.31 34.48 267.6 32.61 267.6 30.33V27C267.6 24.73 268.31 22.86 269.73 21.37C271.15 19.88 273 19.14 275.29 19.14C277.58 19.14 279.46 19.88 280.9 21.37C282.34 22.86 283.06 24.74 283.06 27V30.33H283.07ZM279.37 26.97C279.37 25.53 279.01 24.34 278.29 23.42C277.57 22.5 276.57 22.03 275.3 22.03C274.03 22.03 273.07 22.49 272.36 23.42C271.66 24.35 271.31 25.53 271.31 26.97V30.33C271.31 31.8 271.66 32.99 272.37 33.92C273.07 34.84 274.06 35.3101 275.32 35.3101C276.58 35.3101 277.59 34.85 278.3 33.92C279.01 33 279.37 31.8 279.37 30.33V26.97Z" fill="#ED2024"/>
<path d="M306.7 35.39C306.12 36.15 305.26 36.8 304.12 37.36C302.98 37.92 301.5 38.1899 299.69 38.1899C297.45 38.1899 295.62 37.49 294.19 36.08C292.76 34.67 292.05 32.84 292.05 30.59V26.72C292.05 24.48 292.74 22.65 294.13 21.24C295.51 19.83 297.29 19.12 299.46 19.12C301.63 19.12 303.46 19.66 304.67 20.73C305.87 21.8 306.46 23.24 306.41 25.03L306.38 25.11H302.88C302.88 24.13 302.6 23.3601 302.03 22.8101C301.46 22.2601 300.63 21.99 299.55 21.99C298.47 21.99 297.5 22.4301 296.8 23.3101C296.1 24.1901 295.76 25.32 295.76 26.7V30.59C295.76 31.99 296.12 33.13 296.83 34.01C297.54 34.89 298.5 35.33 299.69 35.33C300.57 35.33 301.27 35.2401 301.78 35.0601C302.29 34.8801 302.69 34.66 302.97 34.39V30.8H299.41V28.23H306.7V35.38V35.39Z" fill="#ED2024"/>
<path d="M313.58 30.52V37.9301H309.86V19.4H316.27C318.38 19.4 320.04 19.88 321.23 20.84C322.42 21.8 323.02 23.15 323.02 24.87C323.02 25.82 322.77 26.64 322.26 27.33C321.76 28.02 321.02 28.58 320.05 29C321.14 29.32 321.93 29.86 322.41 30.62C322.89 31.38 323.13 32.31 323.13 33.42V34.78C323.13 35.3 323.2 35.84 323.34 36.4C323.48 36.96 323.72 37.38 324.06 37.65V37.92H320.23C319.89 37.65 319.67 37.1999 319.57 36.5699C319.47 35.9399 319.42 35.34 319.42 34.75V33.4399C319.42 32.5199 319.17 31.8 318.66 31.28C318.16 30.77 317.44 30.51 316.52 30.51H313.57L313.58 30.52ZM313.58 27.66H316.21C317.25 27.66 318.03 27.44 318.54 27C319.05 26.56 319.3 25.91 319.3 25.04C319.3 24.17 319.04 23.52 318.53 23.02C318.02 22.52 317.26 22.27 316.27 22.27H313.57V27.67L313.58 27.66Z" fill="#ED2024"/>
<path d="M341.47 30.33C341.47 32.61 340.75 34.49 339.32 35.98C337.89 37.46 336.02 38.2 333.72 38.2C331.42 38.2 329.57 37.46 328.14 35.97C326.71 34.48 326 32.61 326 30.33V27C326 24.73 326.71 22.86 328.13 21.37C329.55 19.88 331.4 19.14 333.69 19.14C335.98 19.14 337.86 19.88 339.3 21.37C340.74 22.86 341.46 24.74 341.46 27V30.33H341.47ZM337.77 26.97C337.77 25.53 337.41 24.34 336.69 23.42C335.97 22.5 334.97 22.03 333.7 22.03C332.43 22.03 331.47 22.49 330.77 23.42C330.07 24.35 329.72 25.53 329.72 26.97V30.33C329.72 31.8 330.07 32.99 330.78 33.92C331.49 34.85 332.47 35.3101 333.73 35.3101C334.99 35.3101 336 34.85 336.71 33.92C337.42 33 337.78 31.8 337.78 30.33V26.97H337.77Z" fill="#ED2024"/>
<path d="M359.09 19.39V31.52C359.09 33.61 358.4 35.24 357.02 36.42C355.64 37.6 353.84 38.1899 351.64 38.1899C349.44 38.1899 347.66 37.6 346.29 36.42C344.92 35.24 344.23 33.61 344.23 31.52V19.39H347.96V31.52C347.96 32.76 348.29 33.71 348.95 34.36C349.61 35.01 350.51 35.34 351.64 35.34C352.77 35.34 353.69 35.01 354.36 34.36C355.03 33.71 355.36 32.76 355.36 31.52V19.39H359.09V19.39Z" fill="#ED2024"/>
<path d="M366.03 31.2V37.92H362.31V19.39H369.4C371.53 19.39 373.21 19.93 374.43 21.02C375.65 22.11 376.26 23.5401 376.26 25.3101C376.26 27.0801 375.65 28.51 374.43 29.59C373.21 30.67 371.53 31.21 369.4 31.21H366.03V31.2ZM366.03 28.34H369.4C370.44 28.34 371.22 28.06 371.75 27.49C372.29 26.93 372.55 26.21 372.55 25.33C372.55 24.45 372.28 23.7 371.75 23.12C371.22 22.54 370.43 22.25 369.39 22.25H366.02V28.33L366.03 28.34Z" fill="#ED2024"/>
<path d="M209.28 58.71L209.31 58.79C209.34 60.53 208.73 61.98 207.48 63.16C206.23 64.34 204.56 64.92 202.5 64.92C200.44 64.92 198.7 64.1799 197.38 62.6899C196.06 61.1999 195.4 59.32 195.4 57.04V53.74C195.4 51.46 196.06 49.57 197.38 48.08C198.7 46.59 200.41 45.85 202.5 45.85C204.59 45.85 206.26 46.41 207.5 47.52C208.74 48.63 209.34 50.11 209.31 51.96L209.28 52.04H206.87C206.87 50.74 206.49 49.72 205.72 48.96C204.96 48.21 203.88 47.83 202.49 47.83C201.1 47.83 199.97 48.39 199.14 49.52C198.31 50.65 197.89 52.05 197.89 53.72V57.04C197.89 58.73 198.31 60.14 199.14 61.27C199.97 62.4 201.09 62.96 202.49 62.96C203.89 62.96 204.96 62.58 205.72 61.83C206.48 61.08 206.87 60.04 206.87 58.72H209.28V58.71Z" fill="#231F20"/>
<path d="M226.72 57.03C226.72 59.3 226.02 61.18 224.61 62.67C223.21 64.16 221.38 64.91 219.14 64.91C216.9 64.91 215.22 64.16 213.86 62.67C212.51 61.18 211.83 59.3 211.83 57.03V53.73C211.83 51.47 212.51 49.59 213.86 48.09C215.21 46.59 216.97 45.84 219.14 45.84C221.31 45.84 223.2 46.59 224.61 48.09C226.02 49.59 226.72 51.47 226.72 53.73V57.03ZM224.21 53.71C224.21 52.01 223.75 50.62 222.84 49.54C221.92 48.45 220.69 47.91 219.15 47.91C217.69 47.91 216.53 48.45 215.66 49.54C214.79 50.63 214.36 52.02 214.36 53.71V57.03C214.36 58.74 214.79 60.14 215.66 61.23C216.53 62.32 217.69 62.86 219.15 62.86C220.7 62.86 221.94 62.32 222.85 61.24C223.76 60.16 224.22 58.76 224.22 57.03V53.71H224.21Z" fill="#231F20"/>
<path d="M239.53 61.17H239.61L245.53 46.11H248.65V64.64H246.14V50.75H246.06L240.45 64.64H238.71L232.93 50.28H232.85V64.64H230.34V46.11H233.64L239.53 61.17V61.17Z" fill="#231F20"/>
<path d="M255.49 57.21V64.64H252.98V46.11H260.07C262.05 46.11 263.59 46.62 264.68 47.64C265.78 48.66 266.33 50 266.33 51.66C266.33 53.32 265.78 54.69 264.68 55.7C263.58 56.71 262.04 57.21 260.07 57.21H255.49ZM255.49 55.25H260.07C261.33 55.25 262.26 54.91 262.88 54.24C263.5 53.57 263.81 52.7099 263.81 51.6899C263.81 50.6699 263.5 49.81 262.87 49.12C262.24 48.43 261.31 48.09 260.06 48.09H255.48V55.26L255.49 55.25Z" fill="#231F20"/>
<path d="M277.37 59.87H270.4L268.74 64.64H266.18L272.86 46.11H275.01L281.55 64.64H278.99L277.36 59.87H277.37ZM271.12 57.77H276.66L273.96 49.8101H273.88L271.12 57.77V57.77Z" fill="#231F20"/>
<path d="M298.29 64.65H295.78L286.86 50.5L286.78 50.53V64.66H284.27V46.13H286.78L295.7 60.27L295.78 60.24V46.12H298.29V64.65V64.65Z" fill="#231F20"/>
<path d="M308.32 55.53L313.16 46.11H316.02L309.52 58.13V64.65H307.02V57.9399L300.62 46.12H303.48L308.32 55.54V55.53Z" fill="#231F20"/>
</svg>
